<?xml version="1.0" encoding="UTF-8" ?>
<!DOCTYPE svg PUBLIC "-//W3C//DTD SVG 1.1//EN" "http://www.w3.org/Graphics/SVG/1.1/DTD/svg11.dtd">
<svg width="480pt" height="480pt" viewBox="0 0 480 480" version="1.1" xmlns="http://www.w3.org/2000/svg">
<g id="#241d56ff">
<path fill="#241d56" opacity="1.00" d=" M 280.79 70.70 C 286.76 69.42 292.58 67.53 298.60 66.46 C 298.63 80.35 298.59 94.25 298.63 108.15 C 310.07 108.30 321.51 107.96 332.95 108.20 C 332.96 148.80 332.96 189.40 332.95 230.00 C 342.67 229.90 352.39 229.86 362.11 230.05 C 368.30 221.90 375.90 214.08 385.91 210.93 C 389.87 209.39 394.17 209.76 398.32 209.84 C 395.92 215.49 391.61 220.22 390.14 226.27 C 393.58 225.41 395.41 222.13 398.00 220.00 C 405.26 213.14 415.15 208.50 425.31 209.80 C 423.21 215.56 418.40 220.05 417.34 226.20 C 421.78 224.82 424.25 220.63 427.73 217.86 C 431.48 214.04 436.59 212.24 441.42 210.25 C 445.83 209.80 450.95 208.83 454.94 211.25 C 453.77 213.78 451.37 215.55 449.62 217.67 C 445.92 221.37 442.81 225.58 439.05 229.23 C 441.27 231.01 443.95 232.11 446.16 233.90 C 448.98 237.24 450.84 241.73 449.87 246.14 C 449.29 251.86 444.18 255.97 438.94 257.44 C 439.08 257.92 439.36 258.89 439.49 259.38 C 445.36 264.61 449.90 271.11 455.73 276.39 C 452.20 277.29 448.58 278.20 444.91 277.71 C 439.22 277.36 434.23 274.29 429.55 271.32 C 424.86 268.23 421.87 263.05 416.75 260.59 C 417.15 262.49 417.48 264.49 418.66 266.09 C 421.30 269.86 423.17 274.10 425.96 277.76 C 421.75 277.62 417.43 278.20 413.36 276.83 C 405.65 274.36 399.02 269.26 393.74 263.22 C 392.73 262.05 391.21 261.56 389.88 260.86 C 391.01 267.15 395.75 271.81 398.21 277.53 C 383.20 279.90 370.30 268.96 362.13 257.56 C 352.39 257.55 342.65 257.60 332.91 257.54 C 333.04 292.31 332.89 327.07 332.98 361.84 C 321.53 361.69 310.08 361.78 298.64 361.78 C 298.55 379.37 298.70 396.95 298.55 414.54 C 291.79 413.23 285.24 411.04 278.49 409.63 C 247.76 402.16 217.15 394.23 186.42 386.76 C 181.08 385.36 175.78 383.79 170.33 382.88 L 169.61 382.34 C 161.28 380.45 152.97 378.44 144.72 376.24 C 134.44 373.69 127.19 363.44 127.08 353.02 C 127.18 321.19 126.99 289.36 127.17 257.53 C 117.88 257.56 108.59 257.62 99.30 257.50 C 101.05 266.89 103.39 276.20 105.74 285.46 C 106.12 286.97 106.51 288.48 106.90 290.00 C 80.35 274.34 53.42 259.32 26.73 243.89 C 53.50 228.56 80.37 213.39 107.00 197.82 C 104.85 204.97 103.21 212.25 101.70 219.55 C 101.18 221.15 100.83 222.79 100.56 224.45 C 99.93 226.33 99.56 228.29 99.42 230.27 C 108.64 229.65 117.87 229.96 127.09 230.27 C 127.12 195.84 127.10 161.40 127.10 126.97 C 127.17 124.39 127.96 121.92 128.44 119.40 C 131.17 113.52 135.41 108.00 141.66 105.64 C 147.79 103.48 154.17 102.10 160.51 100.68 C 200.56 90.51 240.74 80.86 280.79 70.70 M 239.97 97.03 C 226.50 99.97 213.31 104.17 199.72 106.52 C 201.81 106.89 203.94 107.09 206.07 107.07 C 231.70 107.05 257.33 107.11 282.96 107.03 C 282.96 100.11 282.94 93.19 282.96 86.27 C 268.62 89.84 254.29 93.39 239.97 97.03 M 153.62 124.41 C 202.37 136.42 250.94 149.15 299.66 161.28 C 299.61 183.85 299.65 206.43 299.59 229.00 C 305.44 228.91 311.30 229.07 317.15 229.19 C 317.19 194.08 317.23 158.97 317.12 123.86 C 263.70 123.89 210.27 123.82 156.85 123.91 C 155.76 123.98 154.68 124.15 153.62 124.41 M 43.17 243.80 C 60.30 253.47 77.23 263.49 94.38 273.10 C 92.59 265.07 90.34 257.13 88.75 249.05 C 134.07 249.07 179.38 249.09 224.70 249.04 C 224.61 245.48 224.60 241.93 224.63 238.38 C 179.34 238.39 134.06 238.35 88.77 238.41 C 90.57 230.48 92.55 222.59 94.37 214.66 C 77.21 224.20 60.30 234.20 43.17 243.80 M 299.00 238.00 C 299.00 241.70 299.00 245.39 299.01 249.09 C 345.02 249.01 391.04 249.13 437.05 249.02 C 439.80 249.28 442.21 246.69 441.98 244.00 C 442.47 241.12 439.85 239.39 437.83 237.98 C 391.56 238.03 345.28 237.99 299.00 238.00 M 299.53 258.33 C 299.72 287.61 299.58 316.88 299.61 346.16 C 305.46 346.18 311.32 346.15 317.18 346.20 C 317.16 316.89 317.24 287.57 317.14 258.26 C 311.27 258.42 305.40 258.36 299.53 258.33 Z" />
</g>
<g id="#fefefdff">
<path fill="#fefefd" opacity="1.00" d=" M 239.97 97.03 C 254.29 93.39 268.62 89.84 282.96 86.27 C 282.94 93.19 282.96 100.11 282.96 107.03 C 257.33 107.11 231.70 107.05 206.07 107.07 C 203.94 107.09 201.81 106.89 199.72 106.52 C 213.31 104.17 226.50 99.97 239.97 97.03 Z" />
<path fill="#fefefd" opacity="1.00" d=" M 153.62 124.41 C 154.68 124.15 155.76 123.98 156.85 123.91 C 210.27 123.82 263.70 123.89 317.12 123.86 C 317.23 158.97 317.19 194.08 317.15 229.19 C 311.30 229.07 305.44 228.91 299.59 229.00 C 299.65 206.43 299.61 183.85 299.66 161.28 C 250.94 149.15 202.37 136.42 153.62 124.41 Z" />
<path fill="#fefefd" opacity="1.00" d=" M 43.17 243.80 C 60.30 234.20 77.21 224.20 94.37 214.66 C 92.55 222.59 90.57 230.48 88.77 238.41 C 134.06 238.35 179.34 238.39 224.63 238.38 C 224.60 241.93 224.61 245.48 224.70 249.04 C 179.38 249.09 134.07 249.07 88.75 249.05 C 90.34 257.13 92.59 265.07 94.38 273.10 C 77.23 263.49 60.30 253.47 43.17 243.80 Z" />
<path fill="#fefefd" opacity="1.00" d=" M 299.00 238.00 C 345.28 237.99 391.56 238.03 437.83 237.98 C 439.85 239.39 442.47 241.12 441.98 244.00 C 442.21 246.69 439.80 249.28 437.05 249.02 C 391.04 249.13 345.02 249.01 299.01 249.09 C 299.00 245.39 299.00 241.70 299.00 238.00 Z" />
<path fill="#fefefd" opacity="1.00" d=" M 299.53 258.33 C 305.40 258.36 311.27 258.42 317.14 258.26 C 317.24 287.57 317.16 316.89 317.18 346.20 C 311.32 346.15 305.46 346.18 299.61 346.16 C 299.58 316.88 299.72 287.61 299.53 258.33 Z" />
</g>
</svg>
